<svg version="1.1" id="Layer_1" xmlns="http://www.w3.org/2000/svg" xmlns:xlink="http://www.w3.org/1999/xlink" x="0px" y="0px"
	 width="100%" viewBox="0 0 800 775" enable-background="new 0 0 800 775" xml:space="preserve">
<path fill="#000000" opacity="1.000000" stroke="none" 
	d="
M479.000000,776.000000 
	C319.333344,776.000000 160.166672,776.000000 1.000000,776.000000 
	C1.000000,517.666687 1.000000,259.333344 1.000000,1.000000 
	C267.666656,1.000000 534.333313,1.000000 801.000000,1.000000 
	C801.000000,259.333344 801.000000,517.666687 801.000000,776.000000 
	C693.833313,776.000000 586.666687,776.000000 479.000000,776.000000 
M366.146545,158.116562 
	C373.215637,155.027939 380.565308,152.446609 387.286530,148.729050 
	C396.820221,143.455856 405.885925,137.337524 415.160797,131.595230 
	C428.605316,123.271423 440.135742,112.850990 449.182800,99.864357 
	C453.764435,93.287575 452.215790,88.652206 445.794495,83.677711 
	C436.825500,76.729568 426.314606,78.440681 416.286316,77.619026 
	C409.392487,77.054184 402.301392,78.228630 395.510437,77.210999 
	C379.713562,74.843842 364.151642,75.199577 348.697968,79.068611 
	C341.538086,80.861198 333.507965,81.594902 327.607910,85.458801 
	C317.763977,91.905510 306.066101,95.969315 298.602509,105.837700 
	C298.508667,105.961807 298.305939,105.997871 298.189514,106.111420 
	C290.783386,113.335426 281.031158,118.061523 275.912354,127.814911 
	C274.729828,130.068100 271.208923,131.094040 267.921417,132.550812 
	C267.267334,132.451508 266.416840,132.035187 265.988647,132.300476 
	C259.599060,136.259003 252.487701,139.485931 247.128876,144.557404 
	C241.338058,150.037689 237.147003,157.224808 232.389053,163.762695 
	C231.658524,164.766495 231.575470,166.269989 231.290390,167.563858 
	C230.544418,170.949615 229.708649,174.325256 229.184753,177.747192 
	C228.773972,180.430283 228.319183,183.239487 228.683838,185.882278 
	C229.598785,192.513000 231.415115,199.039261 232.036545,205.685349 
	C232.754761,213.366425 235.690720,221.062134 232.140121,228.907822 
	C231.065475,231.282410 231.361862,234.285461 231.071915,237.005081 
	C230.742233,240.097519 230.515396,243.201706 230.144852,246.288895 
	C229.218140,254.009720 227.944550,261.701385 227.347458,269.446198 
	C226.569641,279.534973 225.766922,289.434448 221.981125,299.103363 
	C219.533813,305.353790 219.023483,312.415833 218.043076,319.171936 
	C217.126404,325.488800 216.785202,331.887329 216.088623,338.238770 
	C215.773666,341.110413 215.059586,343.941071 214.796997,346.815033 
	C214.407700,351.075745 214.150528,355.355927 214.051651,359.632751 
	C213.999268,361.898804 214.145203,364.233002 214.644073,366.436218 
	C216.077927,372.768768 218.096497,378.986908 219.221436,385.367065 
	C220.804626,394.346344 221.273926,403.477295 226.889069,411.377258 
	C229.086655,414.469086 231.087875,418.642517 230.953812,422.240448 
	C230.722183,428.456635 233.142151,433.414276 235.641068,438.588989 
	C236.500168,440.368042 237.297440,442.190704 237.945847,444.055054 
	C239.679184,449.038940 240.774109,454.328156 243.115341,458.998444 
	C246.908569,466.565247 251.476074,473.745453 255.750854,481.068909 
	C260.815063,489.744843 266.193176,498.250824 270.933197,507.099396 
	C277.551880,519.455078 287.376892,528.699463 298.192657,537.213135 
	C304.920227,542.508728 311.355896,548.188416 317.753387,553.885681 
	C322.476227,558.091614 326.442627,563.310364 331.595490,566.836609 
	C343.093903,574.705139 355.435181,581.352417 366.841827,589.341431 
	C376.555115,596.144470 386.433868,602.158936 397.761963,605.931702 
	C402.866180,607.631653 407.412750,610.968506 412.279449,613.429993 
	C416.954529,615.794495 421.507050,618.828430 426.486847,620.067810 
	C434.929871,622.169067 443.647156,623.226074 452.286285,624.462585 
	C458.583069,625.363770 464.939484,626.392334 471.269379,626.392700 
	C481.297577,626.393250 491.418854,624.171570 501.088776,628.801086 
	C502.170166,629.318787 503.668640,629.025818 504.972443,629.008728 
	C514.472046,628.884399 523.263672,630.893860 530.644775,637.328613 
	C531.374573,637.964905 532.278992,638.488892 533.191895,638.813232 
	C539.836670,641.173706 546.487183,643.520752 553.173340,645.760376 
	C555.794983,646.638550 558.700989,648.209045 561.145752,647.739075 
	C565.605652,646.881531 569.873901,644.870728 574.117798,643.092163 
	C578.165771,641.395691 581.412781,639.120667 580.990601,633.767639 
	C580.760742,630.854065 581.784485,627.860718 581.980225,624.885986 
	C582.069641,623.527832 581.931885,621.844482 581.200500,620.793335 
	C576.693848,614.315613 576.355835,606.965210 576.632507,599.552917 
	C577.019958,589.170044 576.133606,578.483643 582.809204,569.338196 
	C583.295959,568.671265 583.092407,567.468323 583.130432,566.511353 
	C583.404846,559.606140 582.895996,552.564392 584.095154,545.825684 
	C585.969116,535.294800 589.906250,525.318481 589.177551,514.124634 
	C588.505554,503.802338 590.110291,493.331696 590.714600,482.926544 
	C591.020691,477.655975 590.921326,472.322540 591.719849,467.127350 
	C593.894287,452.980042 591.872742,439.078400 590.176086,425.092041 
	C589.195862,417.011169 589.178345,408.817780 588.479980,400.696320 
	C588.193237,397.362030 587.982849,393.679352 586.429260,390.881836 
	C584.457947,387.332092 583.610840,384.070892 584.125122,380.084351 
	C584.431335,377.710541 583.997498,375.129517 583.395020,372.769653 
	C580.807190,362.633911 578.031250,352.546234 575.329285,342.439606 
	C574.496399,339.324371 574.126282,335.994263 572.773010,333.126526 
	C568.821228,324.752228 561.748291,317.732178 561.932251,307.591125 
	C561.937988,307.275269 561.814941,306.915558 561.644043,306.644165 
	C557.081360,299.396606 552.574524,292.112549 547.912048,284.929565 
	C542.269836,276.237030 536.532227,267.605469 530.748962,259.005981 
	C529.289368,256.835571 527.580383,254.815643 525.844849,252.851303 
	C520.808411,247.150879 515.709045,241.505905 510.612671,235.858795 
	C509.630524,234.770538 508.605865,233.707214 507.503998,232.742996 
	C504.023926,229.697647 500.524506,226.673141 496.983093,223.699539 
	C492.342224,219.802734 487.778046,215.797836 482.944885,212.152390 
	C479.445282,209.512787 475.450531,207.537598 471.879700,204.982330 
	C467.998718,202.205109 464.628418,198.625031 460.539062,196.249405 
	C454.558563,192.775101 448.205933,189.906296 441.884735,187.061996 
	C432.996735,183.062668 424.041870,179.200027 415.013214,175.530899 
	C411.361389,174.046860 406.826416,174.080383 403.789368,171.898056 
	C399.603241,168.890060 395.222931,168.057281 390.461060,167.435638 
	C387.711700,167.076721 384.949341,166.373169 382.349487,165.404282 
	C376.776764,163.327499 371.305725,160.977966 366.146545,158.116562 
z"/>
<path fill="#F4CE14" opacity="1.000000" stroke="none" 
	d="
M365.793030,158.740112 
	C371.305725,160.977966 376.776764,163.327499 382.349487,165.404282 
	C384.949341,166.373169 387.711700,167.076721 390.461060,167.435638 
	C395.222931,168.057281 399.603241,168.890060 403.789368,171.898056 
	C406.826416,174.080383 411.361389,174.046860 415.013214,175.530899 
	C424.041870,179.200027 432.996735,183.062668 441.884735,187.061996 
	C448.205933,189.906296 454.558563,192.775101 460.539062,196.249405 
	C464.628418,198.625031 467.998718,202.205109 471.879700,204.982330 
	C475.450531,207.537598 479.445282,209.512787 482.944885,212.152390 
	C487.778046,215.797836 492.342224,219.802734 496.983093,223.699539 
	C500.524506,226.673141 504.023926,229.697647 507.503998,232.742996 
	C508.605865,233.707214 509.630524,234.770538 510.612671,235.858795 
	C515.709045,241.505905 520.808411,247.150879 525.844849,252.851303 
	C527.580383,254.815643 529.289368,256.835571 530.748962,259.005981 
	C536.532227,267.605469 542.269836,276.237030 547.912048,284.929565 
	C552.574524,292.112549 557.081360,299.396606 561.644043,306.644165 
	C561.814941,306.915558 561.937988,307.275269 561.932251,307.591125 
	C561.748291,317.732178 568.821228,324.752228 572.773010,333.126526 
	C574.126282,335.994263 574.496399,339.324371 575.329285,342.439606 
	C578.031250,352.546234 580.807190,362.633911 583.395020,372.769653 
	C583.997498,375.129517 584.431335,377.710541 584.125122,380.084351 
	C583.610840,384.070892 584.457947,387.332092 586.429260,390.881836 
	C587.982849,393.679352 588.193237,397.362030 588.479980,400.696320 
	C589.178345,408.817780 589.195862,417.011169 590.176086,425.092041 
	C591.872742,439.078400 593.894287,452.980042 591.719849,467.127350 
	C590.921326,472.322540 591.020691,477.655975 590.714600,482.926544 
	C590.110291,493.331696 588.505554,503.802338 589.177551,514.124634 
	C589.906250,525.318481 585.969116,535.294800 584.095154,545.825684 
	C582.895996,552.564392 583.404846,559.606140 583.130432,566.511353 
	C583.092407,567.468323 583.295959,568.671265 582.809204,569.338196 
	C576.133606,578.483643 577.019958,589.170044 576.632507,599.552917 
	C576.355835,606.965210 576.693848,614.315613 581.200500,620.793335 
	C581.931885,621.844482 582.069641,623.527832 581.980225,624.885986 
	C581.784485,627.860718 580.760742,630.854065 580.990601,633.767639 
	C581.412781,639.120667 578.165771,641.395691 574.117798,643.092163 
	C569.873901,644.870728 565.605652,646.881531 561.145752,647.739075 
	C558.700989,648.209045 555.794983,646.638550 553.173340,645.760376 
	C546.487183,643.520752 539.836670,641.173706 533.191895,638.813232 
	C532.278992,638.488892 531.374573,637.964905 530.644775,637.328613 
	C523.263672,630.893860 514.472046,628.884399 504.972443,629.008728 
	C503.668640,629.025818 502.170166,629.318787 501.088776,628.801086 
	C491.418854,624.171570 481.297577,626.393250 471.269379,626.392700 
	C464.939484,626.392334 458.583069,625.363770 452.286285,624.462585 
	C443.647156,623.226074 434.929871,622.169067 426.486847,620.067810 
	C421.507050,618.828430 416.954529,615.794495 412.279449,613.429993 
	C407.412750,610.968506 402.866180,607.631653 397.761963,605.931702 
	C386.433868,602.158936 376.555115,596.144470 366.841827,589.341431 
	C355.435181,581.352417 343.093903,574.705139 331.595490,566.836609 
	C326.442627,563.310364 322.476227,558.091614 317.753387,553.885681 
	C311.355896,548.188416 304.920227,542.508728 298.192657,537.213135 
	C287.376892,528.699463 277.551880,519.455078 270.933197,507.099396 
	C266.193176,498.250824 260.815063,489.744843 255.750854,481.068909 
	C251.476074,473.745453 246.908569,466.565247 243.115341,458.998444 
	C240.774109,454.328156 239.679184,449.038940 237.945847,444.055054 
	C237.297440,442.190704 236.500168,440.368042 235.641068,438.588989 
	C233.142151,433.414276 230.722183,428.456635 230.953812,422.240448 
	C231.087875,418.642517 229.086655,414.469086 226.889069,411.377258 
	C221.273926,403.477295 220.804626,394.346344 219.221436,385.367065 
	C218.096497,378.986908 216.077927,372.768768 214.644073,366.436218 
	C214.145203,364.233002 213.999268,361.898804 214.051651,359.632751 
	C214.150528,355.355927 214.407700,351.075745 214.796997,346.815033 
	C215.059586,343.941071 215.773666,341.110413 216.088623,338.238770 
	C216.785202,331.887329 217.126404,325.488800 218.043076,319.171936 
	C219.023483,312.415833 219.533813,305.353790 221.981125,299.103363 
	C225.766922,289.434448 226.569641,279.534973 227.347458,269.446198 
	C227.944550,261.701385 229.218140,254.009720 230.144852,246.288895 
	C230.515396,243.201706 230.742233,240.097519 231.071915,237.005081 
	C231.361862,234.285461 231.065475,231.282410 232.140121,228.907822 
	C235.690720,221.062134 232.754761,213.366425 232.036545,205.685349 
	C231.415115,199.039261 229.598785,192.513000 228.683838,185.882278 
	C228.319183,183.239487 228.773972,180.430283 229.184753,177.747192 
	C229.708649,174.325256 230.544418,170.949615 231.290390,167.563858 
	C231.575470,166.269989 231.658524,164.766495 232.389053,163.762695 
	C237.147003,157.224808 241.338058,150.037689 247.128876,144.557404 
	C252.487701,139.485931 259.599060,136.259003 265.988647,132.300476 
	C266.416840,132.035187 267.267334,132.451508 268.566132,132.735107 
	C273.602020,134.717636 277.054352,133.671982 280.026825,129.896439 
	C281.193817,128.414139 283.127716,127.377022 284.906952,126.561996 
	C293.944244,122.422249 302.436584,116.894653 312.672272,115.744316 
	C314.414856,115.548462 316.011871,114.279175 317.740448,113.696617 
	C323.870026,111.630875 329.905823,109.052986 336.201385,107.765579 
	C347.048615,105.547386 358.064575,104.155128 369.008118,102.406059 
	C370.157471,102.222366 371.291534,101.943710 372.440125,101.754204 
	C381.455933,100.266571 390.471130,98.774399 399.498291,97.358810 
	C399.920441,97.292610 400.454468,97.939514 401.902527,98.885414 
	C360.931580,110.166489 321.119720,121.861992 280.379639,134.609268 
	C291.381561,141.152206 300.907379,146.914825 310.556976,152.462112 
	C312.207733,153.411087 314.370209,153.722397 316.325745,153.840469 
	C321.779755,154.169785 327.286499,153.900101 332.704803,154.488922 
	C343.757660,155.690079 354.766235,157.299118 365.793030,158.740112 
M405.964966,291.596375 
	C405.591949,289.600433 405.540619,287.471313 404.780548,285.635651 
	C403.070709,281.506348 400.766296,277.618011 399.135559,273.462189 
	C393.633209,259.439514 391.616028,244.213013 384.345764,230.779648 
	C381.664856,225.826126 378.594727,220.907303 376.987457,215.584534 
	C373.421692,203.775696 365.336273,194.729187 356.156372,188.401016 
	C341.954529,178.610962 327.614075,168.344147 310.777069,162.914642 
	C309.231537,162.416229 307.854187,161.368958 306.431335,160.521805 
	C297.288940,155.078568 288.401276,149.139221 278.946320,144.309616 
	C270.471375,139.980621 261.511749,141.594086 258.411407,152.281281 
	C256.475098,158.955872 254.827469,165.730164 253.410660,172.534744 
	C252.167633,178.504715 250.927399,184.552429 250.601868,190.614975 
	C250.264252,196.903061 251.627823,203.292114 251.190750,209.563354 
	C250.095398,225.279831 257.448425,238.582504 265.482697,250.310852 
	C272.074036,259.932770 282.567780,268.089996 293.082611,273.482300 
	C304.025696,279.094238 316.980072,280.997986 329.220856,283.798279 
	C339.093658,286.056854 349.244537,287.069824 359.215637,288.936554 
	C372.050110,291.339355 384.782196,294.336609 397.671387,296.356720 
	C400.102966,296.737823 403.063293,293.745209 405.964966,291.596375 
z"/>
<path fill="#495E56" opacity="1.000000" stroke="none" 
	d="
M365.969788,158.428345 
	C354.766235,157.299118 343.757660,155.690079 332.704803,154.488922 
	C327.286499,153.900101 321.779755,154.169785 316.325745,153.840469 
	C314.370209,153.722397 312.207733,153.411087 310.556976,152.462112 
	C300.907379,146.914825 291.381561,141.152206 280.379639,134.609268 
	C321.119720,121.861992 360.931580,110.166489 401.902527,98.885414 
	C400.454468,97.939514 399.920441,97.292610 399.498291,97.358810 
	C390.471130,98.774399 381.455933,100.266571 372.440125,101.754204 
	C371.291534,101.943710 370.157471,102.222366 369.008118,102.406059 
	C358.064575,104.155128 347.048615,105.547386 336.201385,107.765579 
	C329.905823,109.052986 323.870026,111.630875 317.740448,113.696617 
	C316.011871,114.279175 314.414856,115.548462 312.672272,115.744316 
	C302.436584,116.894653 293.944244,122.422249 284.906952,126.561996 
	C283.127716,127.377022 281.193817,128.414139 280.026825,129.896439 
	C277.054352,133.671982 273.602020,134.717636 268.987457,132.802063 
	C271.208923,131.094040 274.729828,130.068100 275.912354,127.814911 
	C281.031158,118.061523 290.783386,113.335426 298.189514,106.111420 
	C298.305939,105.997871 298.508667,105.961807 298.602509,105.837700 
	C306.066101,95.969315 317.763977,91.905510 327.607910,85.458801 
	C333.507965,81.594902 341.538086,80.861198 348.697968,79.068611 
	C364.151642,75.199577 379.713562,74.843842 395.510437,77.210999 
	C402.301392,78.228630 409.392487,77.054184 416.286316,77.619026 
	C426.314606,78.440681 436.825500,76.729568 445.794495,83.677711 
	C452.215790,88.652206 453.764435,93.287575 449.182800,99.864357 
	C440.135742,112.850990 428.605316,123.271423 415.160797,131.595230 
	C405.885925,137.337524 396.820221,143.455856 387.286530,148.729050 
	C380.565308,152.446609 373.215637,155.027939 365.969788,158.428345 
z"/>
<path fill="#4A5F57" opacity="1.000000" stroke="none" 
	d="
M405.872284,291.952881 
	C403.063293,293.745209 400.102966,296.737823 397.671387,296.356720 
	C384.782196,294.336609 372.050110,291.339355 359.215637,288.936554 
	C349.244537,287.069824 339.093658,286.056854 329.220856,283.798279 
	C316.980072,280.997986 304.025696,279.094238 293.082611,273.482300 
	C282.567780,268.089996 272.074036,259.932770 265.482697,250.310852 
	C257.448425,238.582504 250.095398,225.279831 251.190750,209.563354 
	C251.627823,203.292114 250.264252,196.903061 250.601868,190.614975 
	C250.927399,184.552429 252.167633,178.504715 253.410660,172.534744 
	C254.827469,165.730164 256.475098,158.955872 258.411407,152.281281 
	C261.511749,141.594086 270.471375,139.980621 278.946320,144.309616 
	C288.401276,149.139221 297.288940,155.078568 306.431335,160.521805 
	C307.854187,161.368958 309.231537,162.416229 310.777069,162.914642 
	C327.614075,168.344147 341.954529,178.610962 356.156372,188.401016 
	C365.336273,194.729187 373.421692,203.775696 376.987457,215.584534 
	C378.594727,220.907303 381.664856,225.826126 384.345764,230.779648 
	C391.616028,244.213013 393.633209,259.439514 399.135559,273.462189 
	C400.766296,277.618011 403.070709,281.506348 404.780548,285.635651 
	C405.540619,287.471313 405.591949,289.600433 405.872284,291.952881 
M373.018127,266.138092 
	C373.018127,266.138092 373.266541,266.199829 373.266541,266.199829 
	C373.266541,266.199829 372.958832,266.011902 372.842529,265.346863 
	C361.758606,253.441742 350.771820,241.444061 339.552338,229.668137 
	C333.360626,223.169373 326.696289,217.123550 320.393768,210.727005 
	C313.178802,203.404388 306.135132,195.913162 299.003815,188.507919 
	C296.468719,185.875427 294.085724,183.052231 291.296783,180.718201 
	C286.377441,176.601318 281.199707,172.793182 275.910248,168.470825 
	C275.793793,168.787827 275.677368,169.104843 275.759277,170.097534 
	C280.445282,177.338943 284.723297,184.889603 289.919067,191.744659 
	C296.641571,200.614014 304.083557,208.939087 311.238861,217.479141 
	C324.762024,233.619400 339.964661,247.975830 357.608734,259.499634 
	C362.197815,262.496887 367.869537,263.836548 373.018127,266.138092 
z"/>
<path fill="#F1CC16" opacity="1.000000" stroke="none" 
	d="
M276.130157,168.855774 
	C281.199707,172.793182 286.377441,176.601318 291.296783,180.718201 
	C294.085724,183.052231 296.468719,185.875427 299.003815,188.507919 
	C306.135132,195.913162 313.178802,203.404388 320.393768,210.727005 
	C326.696289,217.123550 333.360626,223.169373 339.552338,229.668137 
	C350.771820,241.444061 361.758606,253.441742 372.923218,265.662201 
	C373.003906,265.977539 373.044037,265.937531 373.044037,265.937531 
	C367.869537,263.836548 362.197815,262.496887 357.608734,259.499634 
	C339.964661,247.975830 324.762024,233.619400 311.238861,217.479141 
	C304.083557,208.939087 296.641571,200.614014 289.919067,191.744659 
	C284.723297,184.889603 280.445282,177.338943 275.803894,169.619690 
	C275.848541,169.141846 276.130157,168.855774 276.130157,168.855774 
z"/>
<path fill="#F1CC16" opacity="1.000000" stroke="none" 
	d="
M275.704712,169.281845 
	C275.677368,169.104843 275.793793,168.787827 276.020203,168.663300 
	C276.130157,168.855774 275.848541,169.141846 275.704712,169.281845 
z"/>
<path fill="#F1CC16" opacity="1.000000" stroke="none" 
	d="
M372.981384,265.994720 
	C372.958832,266.011902 373.266541,266.199829 373.266541,266.199829 
	C373.266541,266.199829 373.018127,266.138092 373.031067,266.037811 
	C373.044037,265.937531 373.003906,265.977539 372.981384,265.994720 
z"/>
</svg>